# xmcd
#
# Track frame offsets: 
#        150
#        22845
#        38319
#        51408
#        62937
#        93057
#        129858
#        148812
#        168174
#
# Disc length: 2477 seconds
#
# Revision: 0
# Processed by: cddbd v1.5.2PL0 Copyright (c) Steve Scherf et al.
# Submitted via: ExactAudioCopyFreeDBPlugin 1.0
#
DISCID=6909ab09
DTITLE=Roy Buchanan - Loading Zone
DYEAR=1977
DGENRE=Blues
TTITLE0=The Heat Of The Battle
TTITLE1=Hidden
TTITLE2=The Circle
TTITLE3=Adventures Of Brer Rabbit And Tar Baby
TTITLE4=Ramone's Blues
TTITLE5=Green Onions
TTITLE6=Judy
TTITLE7=Done Your Daddy Dirty
TTITLE8=Your Love
EXTD=
EXTT0=
EXTT1=
EXTT2=
EXTT3=
EXTT4=
EXTT5=
EXTT6=
EXTT7=
EXTT8=
PLAYORDER=
